<?xml version="1.0" encoding="UTF-8"?>
<svg width="400" height="300" viewBox="0 0 400 300" fill="none" xmlns="http://www.w3.org/2000/svg">
  <rect width="400" height="300" rx="32" fill="#F4F7FE"/>
  <rect x="60" y="60" width="280" height="160" rx="16" fill="#fff" stroke="#D1E3FF" stroke-width="3"/>
  <rect x="90" y="90" width="80" height="20" rx="6" fill="#3B82F6"/>
  <rect x="90" y="120" width="60" height="12" rx="4" fill="#E0E7EF"/>
  <rect x="90" y="140" width="100" height="12" rx="4" fill="#E0E7EF"/>
  <rect x="90" y="160" width="70" height="12" rx="4" fill="#E0E7EF"/>
  <rect x="200" y="90" width="90" height="80" rx="10" fill="#E0E7EF"/>
  <rect x="210" y="100" width="70" height="10" rx="3" fill="#3B82F6"/>
  <rect x="210" y="120" width="50" height="8" rx="3" fill="#B6D0FF"/>
  <rect x="210" y="135" width="60" height="8" rx="3" fill="#B6D0FF"/>
  <ellipse cx="320" cy="220" rx="18" ry="18" fill="#3B82F6" fill-opacity="0.15"/>
  <ellipse cx="320" cy="220" rx="10" ry="10" fill="#3B82F6"/>
  <circle cx="110" cy="210" r="16" fill="#3B82F6" fill-opacity="0.15"/>
  <circle cx="110" cy="210" r="8" fill="#3B82F6"/>
  <rect x="170" y="200" width="60" height="12" rx="4" fill="#E0E7EF"/>
  <rect x="170" y="220" width="40" height="8" rx="3" fill="#B6D0FF"/>
  <rect x="170" y="235" width="30" height="8" rx="3" fill="#B6D0FF"/>
  <text x="200" y="50" text-anchor="middle" fill="#3B82F6" font-size="24" font-family="Inter, Arial, sans-serif" font-weight="bold">Business Growth</text>
  <text x="200" y="75" text-anchor="middle" fill="#64748B" font-size="14" font-family="Inter, Arial, sans-serif">Modern & Professional</text>
</svg> 